<mxfile host="Electron" modified="2023-05-12T20:45:26.510Z" agent="Mozilla/5.0 (Windows NT 10.0; Win64; x64) AppleWebKit/537.36 (KHTML, like Gecko) draw.io/21.1.2 Chrome/106.0.5249.199 Electron/21.4.3 Safari/537.36" etag="LWSScLDUDVGWKnoS65VC" version="21.1.2" type="device">
  <diagram name="Page-1" id="Kvd4_rML_OOBNGACGv9B">
    <mxGraphModel dx="1480" dy="866" grid="1" gridSize="10" guides="1" tooltips="1" connect="0" arrows="1" fold="1" page="1" pageScale="1" pageWidth="1000" pageHeight="600" math="0" shadow="0">
      <root>
        <mxCell id="0" />
        <mxCell id="1" parent="0" />
        <mxCell id="iQAhV0d_WjwgxDwJJs6V-7" value="" style="group" vertex="1" connectable="0" parent="1">
          <mxGeometry x="43" y="30" width="915" height="540" as="geometry" />
        </mxCell>
        <mxCell id="bjc_IIJ8yiP-Rou54a3e-7" value="ManageUsers" style="shape=umlLifeline;perimeter=lifelinePerimeter;whiteSpace=wrap;html=1;container=1;dropTarget=0;collapsible=0;recursiveResize=0;outlineConnect=0;portConstraint=eastwest;newEdgeStyle={&quot;edgeStyle&quot;:&quot;elbowEdgeStyle&quot;,&quot;elbow&quot;:&quot;vertical&quot;,&quot;curved&quot;:0,&quot;rounded&quot;:0};fillColor=#d5e8d4;strokeColor=#82b366;movable=0;resizable=0;rotatable=0;deletable=0;editable=0;locked=1;connectable=0;" parent="iQAhV0d_WjwgxDwJJs6V-7" vertex="1">
          <mxGeometry x="665" width="100" height="540" as="geometry" />
        </mxCell>
        <mxCell id="bjc_IIJ8yiP-Rou54a3e-8" value="" style="html=1;points=[];perimeter=orthogonalPerimeter;outlineConnect=0;targetShapes=umlLifeline;portConstraint=eastwest;newEdgeStyle={&quot;edgeStyle&quot;:&quot;elbowEdgeStyle&quot;,&quot;elbow&quot;:&quot;vertical&quot;,&quot;curved&quot;:0,&quot;rounded&quot;:0};fillColor=#d5e8d4;strokeColor=#82b366;movable=0;resizable=0;rotatable=0;deletable=0;editable=0;locked=1;connectable=0;" parent="bjc_IIJ8yiP-Rou54a3e-7" vertex="1">
          <mxGeometry x="45" y="270" width="10" height="260" as="geometry" />
        </mxCell>
        <mxCell id="bjc_IIJ8yiP-Rou54a3e-1" value="" style="shape=umlLifeline;perimeter=lifelinePerimeter;whiteSpace=wrap;html=1;container=1;dropTarget=0;collapsible=0;recursiveResize=0;outlineConnect=0;portConstraint=eastwest;newEdgeStyle={&quot;edgeStyle&quot;:&quot;elbowEdgeStyle&quot;,&quot;elbow&quot;:&quot;vertical&quot;,&quot;curved&quot;:0,&quot;rounded&quot;:0};participant=umlActor;fillColor=#fad7ac;strokeColor=#b46504;" parent="iQAhV0d_WjwgxDwJJs6V-7" vertex="1">
          <mxGeometry x="50" width="23.67" height="540" as="geometry" />
        </mxCell>
        <mxCell id="bjc_IIJ8yiP-Rou54a3e-2" value="" style="html=1;points=[];perimeter=orthogonalPerimeter;outlineConnect=0;targetShapes=umlLifeline;portConstraint=eastwest;newEdgeStyle={&quot;edgeStyle&quot;:&quot;elbowEdgeStyle&quot;,&quot;elbow&quot;:&quot;vertical&quot;,&quot;curved&quot;:0,&quot;rounded&quot;:0};fillColor=#fad7ac;strokeColor=#b46504;" parent="bjc_IIJ8yiP-Rou54a3e-1" vertex="1">
          <mxGeometry x="7" y="50" width="10" height="480" as="geometry" />
        </mxCell>
        <mxCell id="bjc_IIJ8yiP-Rou54a3e-3" value="System" style="shape=umlLifeline;perimeter=lifelinePerimeter;whiteSpace=wrap;html=1;container=1;dropTarget=0;collapsible=0;recursiveResize=0;outlineConnect=0;portConstraint=eastwest;newEdgeStyle={&quot;edgeStyle&quot;:&quot;elbowEdgeStyle&quot;,&quot;elbow&quot;:&quot;vertical&quot;,&quot;curved&quot;:0,&quot;rounded&quot;:0};fillColor=#b1ddf0;strokeColor=#10739e;" parent="iQAhV0d_WjwgxDwJJs6V-7" vertex="1">
          <mxGeometry x="220" width="100" height="540" as="geometry" />
        </mxCell>
        <mxCell id="bjc_IIJ8yiP-Rou54a3e-4" value="" style="html=1;points=[];perimeter=orthogonalPerimeter;outlineConnect=0;targetShapes=umlLifeline;portConstraint=eastwest;newEdgeStyle={&quot;edgeStyle&quot;:&quot;elbowEdgeStyle&quot;,&quot;elbow&quot;:&quot;vertical&quot;,&quot;curved&quot;:0,&quot;rounded&quot;:0};fillColor=#b1ddf0;strokeColor=#10739e;" parent="bjc_IIJ8yiP-Rou54a3e-3" vertex="1">
          <mxGeometry x="45" y="70" width="10" height="460" as="geometry" />
        </mxCell>
        <mxCell id="bjc_IIJ8yiP-Rou54a3e-5" value="Registartion" style="shape=umlLifeline;perimeter=lifelinePerimeter;whiteSpace=wrap;html=1;container=1;dropTarget=0;collapsible=0;recursiveResize=0;outlineConnect=0;portConstraint=eastwest;newEdgeStyle={&quot;edgeStyle&quot;:&quot;elbowEdgeStyle&quot;,&quot;elbow&quot;:&quot;vertical&quot;,&quot;curved&quot;:0,&quot;rounded&quot;:0};fillColor=#f8cecc;strokeColor=#b85450;" parent="iQAhV0d_WjwgxDwJJs6V-7" vertex="1">
          <mxGeometry x="470" width="105" height="540" as="geometry" />
        </mxCell>
        <mxCell id="bjc_IIJ8yiP-Rou54a3e-6" value="" style="html=1;points=[];perimeter=orthogonalPerimeter;outlineConnect=0;targetShapes=umlLifeline;portConstraint=eastwest;newEdgeStyle={&quot;edgeStyle&quot;:&quot;elbowEdgeStyle&quot;,&quot;elbow&quot;:&quot;vertical&quot;,&quot;curved&quot;:0,&quot;rounded&quot;:0};fillColor=#f8cecc;strokeColor=#b85450;" parent="bjc_IIJ8yiP-Rou54a3e-5" vertex="1">
          <mxGeometry x="48" y="170" width="10" height="360" as="geometry" />
        </mxCell>
        <mxCell id="bjc_IIJ8yiP-Rou54a3e-9" value="" style="edgeStyle=elbowEdgeStyle;fontSize=12;html=1;endArrow=blockThin;endFill=1;rounded=0;fillColor=#fad7ac;strokeColor=#b46504;" parent="iQAhV0d_WjwgxDwJJs6V-7" edge="1">
          <mxGeometry width="160" relative="1" as="geometry">
            <mxPoint x="70" y="80" as="sourcePoint" />
            <mxPoint x="260" y="80" as="targetPoint" />
          </mxGeometry>
        </mxCell>
        <mxCell id="bjc_IIJ8yiP-Rou54a3e-10" value="register()" style="edgeLabel;html=1;align=center;verticalAlign=middle;resizable=0;points=[];" parent="bjc_IIJ8yiP-Rou54a3e-9" vertex="1" connectable="0">
          <mxGeometry x="0.0761" y="2" relative="1" as="geometry">
            <mxPoint as="offset" />
          </mxGeometry>
        </mxCell>
        <mxCell id="bjc_IIJ8yiP-Rou54a3e-11" value="RegistrationForm" style="html=1;verticalAlign=bottom;endArrow=open;dashed=1;endSize=8;edgeStyle=elbowEdgeStyle;elbow=vertical;curved=0;rounded=0;fillColor=#fad7ac;strokeColor=#b46504;" parent="iQAhV0d_WjwgxDwJJs6V-7" edge="1">
          <mxGeometry relative="1" as="geometry">
            <mxPoint x="260" y="120" as="sourcePoint" />
            <mxPoint x="70" y="120" as="targetPoint" />
            <Array as="points">
              <mxPoint x="220" y="120" />
            </Array>
          </mxGeometry>
        </mxCell>
        <mxCell id="bjc_IIJ8yiP-Rou54a3e-12" value="" style="edgeStyle=elbowEdgeStyle;fontSize=12;html=1;endArrow=blockThin;endFill=1;rounded=0;fillColor=#fad7ac;strokeColor=#b46504;" parent="iQAhV0d_WjwgxDwJJs6V-7" edge="1">
          <mxGeometry width="160" relative="1" as="geometry">
            <mxPoint x="70" y="160" as="sourcePoint" />
            <mxPoint x="260" y="161" as="targetPoint" />
          </mxGeometry>
        </mxCell>
        <mxCell id="bjc_IIJ8yiP-Rou54a3e-13" value="submitForm()" style="edgeLabel;html=1;align=center;verticalAlign=middle;resizable=0;points=[];" parent="bjc_IIJ8yiP-Rou54a3e-12" vertex="1" connectable="0">
          <mxGeometry x="0.0761" y="2" relative="1" as="geometry">
            <mxPoint as="offset" />
          </mxGeometry>
        </mxCell>
        <mxCell id="bjc_IIJ8yiP-Rou54a3e-14" value="" style="edgeStyle=elbowEdgeStyle;fontSize=12;html=1;endArrow=blockThin;endFill=1;rounded=0;fillColor=#b1ddf0;strokeColor=#10739e;" parent="iQAhV0d_WjwgxDwJJs6V-7" edge="1">
          <mxGeometry width="160" relative="1" as="geometry">
            <mxPoint x="280" y="190" as="sourcePoint" />
            <mxPoint x="510" y="190" as="targetPoint" />
          </mxGeometry>
        </mxCell>
        <mxCell id="bjc_IIJ8yiP-Rou54a3e-15" value="register(info...)" style="edgeLabel;html=1;align=center;verticalAlign=middle;resizable=0;points=[];" parent="bjc_IIJ8yiP-Rou54a3e-14" vertex="1" connectable="0">
          <mxGeometry x="0.2417" relative="1" as="geometry">
            <mxPoint x="-25" as="offset" />
          </mxGeometry>
        </mxCell>
        <mxCell id="bjc_IIJ8yiP-Rou54a3e-18" value="" style="edgeStyle=elbowEdgeStyle;fontSize=12;html=1;endArrow=blockThin;endFill=1;rounded=0;fillColor=#f8cecc;strokeColor=#b85450;" parent="iQAhV0d_WjwgxDwJJs6V-7" edge="1">
          <mxGeometry width="160" relative="1" as="geometry">
            <mxPoint x="542" y="420" as="sourcePoint" />
            <mxPoint x="707" y="420" as="targetPoint" />
          </mxGeometry>
        </mxCell>
        <mxCell id="bjc_IIJ8yiP-Rou54a3e-19" value="addNewUser(user)" style="edgeLabel;html=1;align=center;verticalAlign=middle;resizable=0;points=[];" parent="bjc_IIJ8yiP-Rou54a3e-18" vertex="1" connectable="0">
          <mxGeometry x="-0.2679" y="-2" relative="1" as="geometry">
            <mxPoint x="30" y="-12" as="offset" />
          </mxGeometry>
        </mxCell>
        <mxCell id="QA9PAKTxuOgROJPOoS3U-4" value="Valid Format" style="shape=umlFrame;whiteSpace=wrap;html=1;pointerEvents=0;width=110;height=30;fillColor=#b1ddf0;strokeColor=#10739e;movable=0;resizable=0;rotatable=0;deletable=0;editable=0;locked=1;connectable=0;" parent="iQAhV0d_WjwgxDwJJs6V-7" vertex="1">
          <mxGeometry y="250" width="915" height="260" as="geometry" />
        </mxCell>
        <mxCell id="QA9PAKTxuOgROJPOoS3U-7" value="registration Done" style="html=1;verticalAlign=bottom;endArrow=open;dashed=1;endSize=8;edgeStyle=elbowEdgeStyle;elbow=vertical;curved=0;rounded=0;fillColor=#b1ddf0;strokeColor=#10739e;" parent="iQAhV0d_WjwgxDwJJs6V-7" edge="1">
          <mxGeometry x="-0.0526" relative="1" as="geometry">
            <mxPoint x="255" y="428" as="sourcePoint" />
            <mxPoint x="73.66999999999999" y="427.6" as="targetPoint" />
            <Array as="points">
              <mxPoint x="243.66999999999996" y="427.6" />
            </Array>
            <mxPoint as="offset" />
          </mxGeometry>
        </mxCell>
        <mxCell id="QA9PAKTxuOgROJPOoS3U-12" value="InvalidFormat" style="html=1;verticalAlign=bottom;endArrow=open;dashed=1;endSize=8;edgeStyle=elbowEdgeStyle;elbow=vertical;curved=0;rounded=0;fillColor=#b1ddf0;strokeColor=#10739e;" parent="iQAhV0d_WjwgxDwJJs6V-7" edge="1">
          <mxGeometry relative="1" as="geometry">
            <mxPoint x="263.67" y="490" as="sourcePoint" />
            <mxPoint x="73.67" y="490" as="targetPoint" />
            <Array as="points">
              <mxPoint x="223.05" y="490" />
              <mxPoint x="113.04999999999998" y="480" />
              <mxPoint x="103.04999999999998" y="490" />
              <mxPoint x="223.05" y="540" />
            </Array>
          </mxGeometry>
        </mxCell>
        <mxCell id="QA9PAKTxuOgROJPOoS3U-15" value="isUserExist" style="shape=umlFrame;whiteSpace=wrap;html=1;pointerEvents=0;width=90;height=30;fillColor=#b1ddf0;strokeColor=#10739e;movable=1;resizable=1;rotatable=1;deletable=1;editable=1;locked=0;connectable=1;" parent="iQAhV0d_WjwgxDwJJs6V-7" vertex="1">
          <mxGeometry x="10" y="300" width="885" height="140" as="geometry" />
        </mxCell>
        <mxCell id="QA9PAKTxuOgROJPOoS3U-17" value="Registration Failed&lt;br&gt;User Already Exist" style="html=1;verticalAlign=bottom;endArrow=open;dashed=1;endSize=8;edgeStyle=elbowEdgeStyle;elbow=vertical;curved=0;rounded=0;fillColor=#b1ddf0;strokeColor=#10739e;" parent="iQAhV0d_WjwgxDwJJs6V-7" edge="1">
          <mxGeometry y="6" relative="1" as="geometry">
            <mxPoint x="260" y="350" as="sourcePoint" />
            <mxPoint x="70" y="350" as="targetPoint" />
            <Array as="points">
              <mxPoint x="200" y="350" />
            </Array>
            <mxPoint as="offset" />
          </mxGeometry>
        </mxCell>
        <mxCell id="4efZw6-Ut2jEx3Hd6Ta_-3" value="" style="endArrow=none;dashed=1;html=1;rounded=0;startSize=14;endSize=14;sourcePerimeterSpacing=8;targetPerimeterSpacing=8;curved=1;fillColor=#b1ddf0;strokeColor=#10739e;" parent="iQAhV0d_WjwgxDwJJs6V-7" edge="1">
          <mxGeometry width="50" height="50" relative="1" as="geometry">
            <mxPoint x="5" y="460" as="sourcePoint" />
            <mxPoint x="785" y="460" as="targetPoint" />
          </mxGeometry>
        </mxCell>
        <mxCell id="4efZw6-Ut2jEx3Hd6Ta_-4" value="" style="endArrow=none;dashed=1;html=1;rounded=0;startSize=14;endSize=14;sourcePerimeterSpacing=8;targetPerimeterSpacing=8;curved=1;fillColor=#b1ddf0;strokeColor=#10739e;" parent="iQAhV0d_WjwgxDwJJs6V-7" edge="1">
          <mxGeometry width="50" height="50" relative="1" as="geometry">
            <mxPoint x="10" y="360" as="sourcePoint" />
            <mxPoint x="885" y="360" as="targetPoint" />
          </mxGeometry>
        </mxCell>
        <mxCell id="4efZw6-Ut2jEx3Hd6Ta_-7" value="&lt;font style=&quot;font-size: 9px;&quot;&gt;isValidFormat&lt;/font&gt;" style="text;html=1;strokeColor=none;fillColor=none;align=center;verticalAlign=middle;whiteSpace=wrap;rounded=0;strokeWidth=0;" parent="iQAhV0d_WjwgxDwJJs6V-7" vertex="1">
          <mxGeometry x="31.840000000000003" y="274" width="60" height="30" as="geometry" />
        </mxCell>
        <mxCell id="4efZw6-Ut2jEx3Hd6Ta_-8" value="&lt;font style=&quot;font-size: 9px;&quot;&gt;isExist&lt;/font&gt;" style="text;html=1;strokeColor=none;fillColor=none;align=center;verticalAlign=middle;whiteSpace=wrap;rounded=0;strokeWidth=0;" parent="iQAhV0d_WjwgxDwJJs6V-7" vertex="1">
          <mxGeometry x="5" y="329" width="60" height="30" as="geometry" />
        </mxCell>
        <mxCell id="4efZw6-Ut2jEx3Hd6Ta_-9" value="" style="edgeStyle=elbowEdgeStyle;fontSize=12;html=1;endArrow=blockThin;endFill=1;rounded=0;fillColor=#f8cecc;strokeColor=#b85450;" parent="iQAhV0d_WjwgxDwJJs6V-7" edge="1">
          <mxGeometry width="160" relative="1" as="geometry">
            <mxPoint x="532" y="283" as="sourcePoint" />
            <mxPoint x="699" y="280" as="targetPoint" />
          </mxGeometry>
        </mxCell>
        <mxCell id="4efZw6-Ut2jEx3Hd6Ta_-10" value="isExist:=&lt;br&gt;checkExistBuyer(username)" style="edgeLabel;html=1;align=center;verticalAlign=middle;resizable=0;points=[];" parent="4efZw6-Ut2jEx3Hd6Ta_-9" vertex="1" connectable="0">
          <mxGeometry x="-0.2679" y="-2" relative="1" as="geometry">
            <mxPoint x="18" y="-12" as="offset" />
          </mxGeometry>
        </mxCell>
        <mxCell id="iQAhV0d_WjwgxDwJJs6V-1" value="OTP" style="shape=umlLifeline;perimeter=lifelinePerimeter;whiteSpace=wrap;html=1;container=1;dropTarget=0;collapsible=0;recursiveResize=0;outlineConnect=0;portConstraint=eastwest;newEdgeStyle={&quot;edgeStyle&quot;:&quot;elbowEdgeStyle&quot;,&quot;elbow&quot;:&quot;vertical&quot;,&quot;curved&quot;:0,&quot;rounded&quot;:0};fillColor=#e1d5e7;strokeColor=#9673a6;movable=1;resizable=1;rotatable=1;deletable=1;editable=1;locked=0;connectable=1;" vertex="1" parent="iQAhV0d_WjwgxDwJJs6V-7">
          <mxGeometry x="795" width="100" height="540" as="geometry" />
        </mxCell>
        <mxCell id="iQAhV0d_WjwgxDwJJs6V-2" value="" style="html=1;points=[];perimeter=orthogonalPerimeter;outlineConnect=0;targetShapes=umlLifeline;portConstraint=eastwest;newEdgeStyle={&quot;edgeStyle&quot;:&quot;elbowEdgeStyle&quot;,&quot;elbow&quot;:&quot;vertical&quot;,&quot;curved&quot;:0,&quot;rounded&quot;:0};fillColor=#e1d5e7;strokeColor=#9673a6;movable=1;resizable=1;rotatable=1;deletable=1;editable=1;locked=0;connectable=1;" vertex="1" parent="iQAhV0d_WjwgxDwJJs6V-1">
          <mxGeometry x="45" y="60" width="10" height="470" as="geometry" />
        </mxCell>
        <mxCell id="iQAhV0d_WjwgxDwJJs6V-3" value="" style="edgeStyle=elbowEdgeStyle;fontSize=12;html=1;endArrow=blockThin;endFill=1;rounded=0;fillColor=#f8cecc;strokeColor=#b85450;" edge="1" parent="iQAhV0d_WjwgxDwJJs6V-7">
          <mxGeometry width="160" relative="1" as="geometry">
            <mxPoint x="537" y="372" as="sourcePoint" />
            <mxPoint x="835" y="370" as="targetPoint" />
          </mxGeometry>
        </mxCell>
        <mxCell id="iQAhV0d_WjwgxDwJJs6V-4" value="sendOTP(email)" style="edgeLabel;html=1;align=center;verticalAlign=middle;resizable=0;points=[];" vertex="1" connectable="0" parent="iQAhV0d_WjwgxDwJJs6V-3">
          <mxGeometry x="0.2417" relative="1" as="geometry">
            <mxPoint x="-68" as="offset" />
          </mxGeometry>
        </mxCell>
        <mxCell id="iQAhV0d_WjwgxDwJJs6V-5" value="" style="edgeStyle=elbowEdgeStyle;fontSize=12;html=1;endArrow=blockThin;endFill=1;rounded=0;fillColor=#f8cecc;strokeColor=#b85450;" edge="1" parent="iQAhV0d_WjwgxDwJJs6V-7">
          <mxGeometry width="160" relative="1" as="geometry">
            <mxPoint x="535" y="392" as="sourcePoint" />
            <mxPoint x="835" y="392" as="targetPoint" />
          </mxGeometry>
        </mxCell>
        <mxCell id="iQAhV0d_WjwgxDwJJs6V-6" value="takeOTP()" style="edgeLabel;html=1;align=center;verticalAlign=middle;resizable=0;points=[];" vertex="1" connectable="0" parent="iQAhV0d_WjwgxDwJJs6V-5">
          <mxGeometry x="0.2417" relative="1" as="geometry">
            <mxPoint x="-71" as="offset" />
          </mxGeometry>
        </mxCell>
      </root>
    </mxGraphModel>
  </diagram>
</mxfile>
